{"title":"The Hangover Part III 2013 WEBRip XviD AC3 - TODE","uid":8550899,"size":748364337,"categoryP":"video","categoryS":"movies","magnet":"?xt=urn:btih:6176b8eb7450956edc70f27282bc2740f7b85313&amp;dn=The+Hangover+Part+III+2013+WEBRip+XviD+AC3+-+TODE&amp;tr=udp%3A%2F%2Ftracker.openbittorrent.com%3A80&amp;tr=udp%3A%2F%2Fopen.demonii.com%3A1337&amp;tr=udp%3A%2F%2Ftracker.coppersurfer.tk%3A6969&amp;tr=udp%3A%2F%2Fexodus.desync.com%3A6969","seeders":4,"leechers":0,"uploader":"xxxlavalxxx","files":-1,"time":1370640110,"description":"\n &lt;a href=&quot;\nhttp://www.imdb.com/title/tt1951261/&quot; rel=&quot;nofollow&quot; target=&quot;_NEW&quot;&gt;\nhttp://www.imdb.com/title/tt1951261/&lt;/a&gt;\n\n\n When one of their own is kidnapped by an angry gangster, the Wolf Pack must track down Mr. Chow, who has escaped from prison and is on the lam. \n\n\n\n Director:\n Todd Phillips \n\n Writers:\n Todd Phillips, Craig Mazin\n\n Stars:\n Bradley Cooper, Ed Helms, Zach Galifianakis \n\n Genres:\n   Comedy \n\n Country:\n USA \n\n Language:\n English \n\n\n\n Format                                   : AVI\n Format/Info                              : Audio Video Interleave\n File size                                : 696 MiB\n Duration                                 : 1h 38mn\n Overall bit rate                         : 991 Kbps\n Writing application                      : Lavf55.3.100\n\n Video\n ID                                       : 0\n Format                                   : MPEG-4 Visual\n Format profile                           : Simple@L3\n Format settings, BVOP                    : No\n Format settings, QPel                    : No\n Format settings, GMC                     : No warppoints\n Format settings, Matrix                  : Default (H.263)\n Codec ID                                 : XVID\n Codec ID/Hint                            : XviD\n Duration                                 : 1h 38mn\n Bit rate                                 : 900 Kbps\n Width                                    : 640 pixels\n Height                                   : 270 pixels\n Display aspect ratio                     : 2.35:1\n Original display aspect ratio            : 2.40:1\n Frame rate                               : 23.976 fps\n Color space                              : YUV\n Chroma subsampling                       : 4:2:0\n Bit depth                                : 8 bits\n Scan type                                : Progressive\n Compression mode                         : Lossy\n Bits/(Pixel*Frame)                       : 0.217\n Stream size                              : 632 MiB (91%)\n Writing library                          : XviD 64\n\n Audio\n ID                                       : 1\n Format                                   : AC-3\n Format/Info                              : Audio Coding 3\n Mode extension                           : CM (complete main)\n Format settings, Endianness              : Big\n Codec ID                                 : 2000\n Duration                                 : 1h 38mn\n Bit rate mode                            : Constant\n Bit rate                                 : 80.0 Kbps\n Channel(s)                               : 2 channels\n Channel positions                        : Front: L R\n Sampling rate                            : 48.0 KHz\n Bit depth                                : 16 bits\n Compression mode                         : Lossy\n Stream size                              : 56.2 MiB (8%)\n Alignment                                : Aligned on interleaves\n Interleave, duration                     : 32 ms (0.77 video frame)\n\n\n\n &lt;a href=&quot;\nhttp://addpix.net/viewer.php?file=07811416770410631192.jpg&quot; rel=&quot;nofollow&quot; target=&quot;_NEW&quot;&gt;\nhttp://addpix.net/viewer.php?file=07811416770410631192.jpg&lt;/a&gt; &lt;a href=&quot;\nhttp://addpix.net/viewer.php?file=51680969684576465923.jpg&quot; rel=&quot;nofollow&quot; target=&quot;_NEW&quot;&gt;\nhttp://addpix.net/viewer.php?file=51680969684576465923.jpg&lt;/a&gt; &lt;a href=&quot;\nhttp://addpix.net/viewer.php?file=44136778496425553804.jpg&quot; rel=&quot;nofollow&quot; target=&quot;_NEW&quot;&gt;\nhttp://addpix.net/viewer.php?file=44136778496425553804.jpg&lt;/a&gt; &lt;a href=&quot;\nhttp://addpix.net/viewer.php?file=48129845910636022470.jpg&quot; rel=&quot;nofollow&quot; target=&quot;_NEW&quot;&gt;\nhttp://addpix.net/viewer.php?file=48129845910636022470.jpg&lt;/a&gt; &lt;a href=&quot;\nhttp://addpix.net/viewer.php?file=32895465839667685037.jpg&quot; rel=&quot;nofollow&quot; target=&quot;_NEW&quot;&gt;\nhttp://addpix.net/viewer.php?file=32895465839667685037.jpg&lt;/a&gt; &lt;a href=&quot;\nhttp://addpix.net/viewer.php?file=15059353370726547976.jpg&quot; rel=&quot;nofollow&quot; target=&quot;_NEW&quot;&gt;\nhttp://addpix.net/viewer.php?file=15059353370726547976.jpg&lt;/a&gt;\n\n","torrent":{"xt":"urn:btih:6176b8eb7450956edc70f27282bc2740f7b85313","amp;dn":"The+Hangover+Part+III+2013+WEBRip+XviD+AC3+-+TODE","amp;tr":["udp%3A%2F%2Ftracker.openbittorrent.com%3A80","udp%3A%2F%2Fopen.demonii.com%3A1337","udp%3A%2F%2Ftracker.coppersurfer.tk%3A6969","udp%3A%2F%2Fexodus.desync.com%3A6969"],"infoHash":"6176b8eb7450956edc70f27282bc2740f7b85313","infoHashBuffer":{"type":"Buffer","data":[97,118,184,235,116,80,149,110,220,112,242,114,130,188,39,64,247,184,83,19]},"announce":[],"urlList":[]}}